<?xml version="1.0" encoding="UTF-8"?>
<!DOCTYPE svg PUBLIC "-//W3C//DTD SVG 1.1//EN" "http://www.w3.org/Graphics/SVG/1.1/DTD/svg11.dtd">
<!-- Creator: CorelDRAW X6 -->
<svg xmlns="http://www.w3.org/2000/svg" xml:space="preserve" width="217.192mm" height="230mm" version="1.1" style="shape-rendering:geometricPrecision; text-rendering:geometricPrecision; image-rendering:optimizeQuality; fill-rule:evenodd; clip-rule:evenodd"
viewBox="0 0 12847 13604"
 xmlns:xlink="http://www.w3.org/1999/xlink">
 <defs>
  <style type="text/css">
   <![CDATA[
    .str0 {stroke:#2B2A29;stroke-width:1182.99}
    .fil0 {fill:#FEFEFE}
   ]]>
  </style>
 </defs>
 <g id="Layer_x0020_1">
  <metadata id="CorelCorpID_0Corel-Layer"/>
  <path class="fil0" d="M1705 10491l2914 -3191c256,-279 256,-717 0,-996l-2914 -3192c-179,-196 -271,-451 -260,-717 12,-266 127,-511 324,-690 1159,-1058 3342,2183 4147,3065 262,287 751,287 1014,0l2740 -3000c356,-390 1017,-420 1407,-64 197,179 312,425 324,690 12,266 -80,520 -260,717l-2914 3191c-256,279 -256,717 0,996l2914 3192c179,196 271,451 260,717 -12,266 -127,511 -324,690 -390,356 -1050,326 -1407,-64l-2740 -3001c-131,-143 -316,-226 -507,-226 -191,0 -376,82 -507,226l-2740 3000c-356,390 -1016,421 -1407,64 -197,-179 -312,-425 -324,-690 -12,-265 80,-520 260,-717z"/>
  <path class="fil0 str0" d="M593 11247c22,493 236,949 600,1282 342,312 785,484 1247,484 518,0 1016,-219 1366,-602l2616 -2865 2616 2866c350,383 848,602 1366,602 463,0 906,-172 1247,-484 365,-333 578,-789 600,-1282 22,-493 -149,-966 -482,-1331l-2843 -3114 2843 -3114c333,-365 504,-838 482,-1331 -22,-493 -236,-949 -600,-1282 -341,-312 -785,-483 -1247,-483 -518,0 -1016,219 -1366,602l-2616 2865 -2616 -2866c-350,-383 -848,-602 -1366,-602 -462,0 -905,172 -1247,483 -365,333 -578,789 -600,1282 -22,493 149,966 482,1331l2843 3114 -2843 3113c-333,365 -504,838 -482,1331z"/>
 </g>
</svg>
